<svg preserveAspectRatio="none" overflow="visible" style="display: block;" width="17.1492" height="14.0654" viewBox="0 0 17.1492 14.0654" fill="none" xmlns="http://www.w3.org/2000/svg">
<g id="&#60;Group&#62;">
<path id="&#60;Path&#62;" d="M12.7838 9.78983C13.7276 9.44132 14.462 8.87058 14.9868 8.07762C15.5116 7.28466 15.774 6.30146 15.774 5.12801C15.774 4.34079 15.6543 3.63106 15.4148 2.99882C15.1754 2.36741 14.8302 1.82906 14.3791 1.38379C13.9265 0.939339 13.3746 0.59739 12.7235 0.357944C12.0724 0.120138 11.3348 0.000824214 10.5107 4.19251e-06H6.55202e-05V2.48221H10.6386C11.53 2.48221 12.2221 2.7069 12.7149 3.15627C13.2077 3.60564 13.4542 4.29241 13.4542 5.21657C13.4542 6.14073 13.218 6.84677 12.7457 7.33469C12.2725 7.82342 11.5702 8.06779 10.6386 8.06779H6.55202e-05V10.1355H9.85631L13.4788 14.0654H17.1492L12.7838 9.78983Z" fill="white"/>
</g>
</svg>
